<svg width="180" height="180" viewBox="0 0 180 180" fill="none" xmlns="http://www.w3.org/2000/svg">
<rect width="180" height="180" fill="black"/>
<path d="M130.864 74.8182H113.864C113.379 72.0303 112.485 69.5606 111.182 67.4091C109.879 65.2273 108.258 63.3788 106.318 61.8636C104.379 60.3485 102.167 59.2121 99.6818 58.4545C97.2273 57.6667 94.5758 57.2727 91.7273 57.2727C86.6667 57.2727 82.1818 58.5455 78.2727 61.0909C74.3636 63.6061 71.303 67.303 69.0909 72.1818C66.8788 77.0303 65.7727 82.9545 65.7727 89.9545C65.7727 97.0758 66.8788 103.076 69.0909 107.955C71.3333 112.803 74.3939 116.47 78.2727 118.955C82.1818 121.409 86.6515 122.636 91.6818 122.636C94.4697 122.636 97.0758 122.273 99.5 121.545C101.955 120.788 104.152 119.682 106.091 118.227C108.061 116.773 109.712 114.985 111.045 112.864C112.409 110.742 113.348 108.318 113.864 105.591L130.864 105.682C130.227 110.106 128.848 114.258 126.727 118.136C124.636 122.015 121.894 125.439 118.5 128.409C115.106 131.348 111.136 133.652 106.591 135.318C102.045 136.955 97 137.773 91.4545 137.773C83.2727 137.773 75.9697 135.879 69.5455 132.091C63.1212 128.303 58.0606 122.833 54.3636 115.682C50.6667 108.53 48.8182 99.9545 48.8182 89.9545C48.8182 79.9242 50.6818 71.3485 54.4091 64.2273C58.1364 57.0758 63.2121 51.6061 69.6364 47.8182C76.0606 44.0303 83.3333 42.1364 91.4545 42.1364C96.6364 42.1364 101.455 42.8636 105.909 44.3182C110.364 45.7727 114.333 47.9091 117.818 50.7273C121.303 53.5151 124.167 56.9394 126.409 61C128.682 65.0303 130.167 69.6364 130.864 74.8182Z" fill="white"/>
</svg>
